<svg viewBox="0 0 24 24" xmlns="http://www.w3.org/2000/svg">
  <path
    d="M10.4999 17.0489V3H12.4999V17.3724C12.9761 16.7635 13.5037 16.163 14.0515 15.6092C14.8617 14.7904 15.7566 14.0318 16.6576 13.4713C17.5386 12.923 18.5272 12.5 19.4999 12.5V14.5C19.0726 14.5 18.4654 14.702 17.7142 15.1694C16.9828 15.6244 16.209 16.2721 15.4733 17.0158C13.9743 18.531 12.7952 20.2764 12.4486 21.3162C12.3125 21.7246 11.9304 22 11.4999 22C11.0695 22 10.6874 21.7246 10.5513 21.3162C10.2563 20.4314 9.54205 18.9686 8.38491 17.594C7.23129 16.2236 5.68524 14.9962 3.73682 14.4648L4.26305 12.5352C6.71463 13.2038 8.58524 14.7264 9.91496 16.306C10.1219 16.5518 10.3168 16.8003 10.4999 17.0489Z"
    fill="#F7931A"
  />
</svg>
