<svg viewBox="0 0 623 640" fill="none" xmlns="http://www.w3.org/2000/svg">
  <line y1="530.131" x2="649.701" y2="530.131" stroke="black" />
  <line
    x1="95.0615"
    y1="1.82101e-08"
    x2="95.0615"
    y2="589.487"
    stroke="black"
  />
  <line y1="194.75" x2="649.701" y2="194.75" stroke="black" />
  <line y1="304.987" x2="649.701" y2="304.987" stroke="black" />
  <line x1="387.712" y1="1.82101e-08" x2="387.712" y2="639" stroke="black" />
  <line y1="418.026" x2="649.701" y2="418.026" stroke="black" />
  <line x1="291.521" x2="291.521" y2="550.25" stroke="black" />
  <line x1="584.17" y1="1.82101e-08" x2="584.17" y2="639" stroke="black" />
  <line x1="192.883" y1="1.82101e-08" x2="192.883" y2="550.25" stroke="black" />
  <line y1="81.7105" x2="649.701" y2="81.7105" stroke="black" />
  <line x1="486.349" y1="1.82101e-08" x2="486.349" y2="639" stroke="black" />
  <path
    d="M457.314 441.851L455.959 535.971"
    stroke="black"
    stroke-width="7.5"
    stroke-linecap="round"
  />
  <path
    d="M378.71 459.747L359.737 572.425"
    stroke="black"
    stroke-width="7.5"
    stroke-linecap="round"
  />
  <path
    d="M534.563 437.874L567.089 549.227"
    stroke="black"
    stroke-width="7.5"
    stroke-linecap="round"
  />
  <path
    d="M571.289 393.168C569.062 426.006 539.381 448.694 497.987 448.694C477.309 448.694 454.726 442.12 437.328 431.278C419.908 420.423 407.857 405.408 407.857 388.588C407.857 373.273 414.011 358.012 428.295 346.945C442.592 335.867 465.116 328.93 497.952 330.467C519.136 331.458 538.318 334.762 551.772 343.979C565.146 353.142 572.981 368.238 571.289 393.168Z"
    fill="white"
    stroke="black"
    stroke-width="1.5"
  />
  <path
    d="M508.813 473.667L504.748 586.518"
    stroke="black"
    stroke-width="7.5"
    stroke-linecap="round"
  />
  <path
    fill-rule="evenodd"
    clip-rule="evenodd"
    d="M434.873 473.632C434.905 473.635 434.937 473.637 434.969 473.639C435.9 473.71 436.836 473.778 437.778 473.845C401.866 469.341 378.546 453.61 374.028 446.127"
    fill="white"
  />
  <path
    d="M374.028 446.127C370.949 455.959 378.258 462.829 390.347 467.3C396.381 469.532 414.178 472.063 434.873 473.632L434.969 473.639C435.9 473.71 436.836 473.778 437.778 473.845C401.866 469.341 378.546 453.61 374.028 446.127Z"
    fill="black"
  />
  <path
    d="M550.096 457.113C529.684 459.16 483.508 463.342 455.396 458.457C420.161 452.335 379.505 433.288 374.762 444.172C374.503 444.767 374.28 445.352 374.092 445.927C374.07 445.994 374.049 446.061 374.028 446.127C378.546 453.61 401.866 469.341 437.778 473.845C460.543 475.45 486.245 475.848 503.505 473.423C519.315 471.609 551.749 464.307 555.002 460.498C558.187 456.768 552.969 456.212 550.418 457.042C550.311 457.077 550.208 457.102 550.096 457.113Z"
    fill="white"
  />
  <path
    d="M390.347 467.3C378.258 462.829 370.949 455.959 374.028 446.127M390.347 467.3C396.381 469.532 414.178 472.063 434.873 473.632M390.347 467.3C378.176 462.799 370.85 455.866 374.092 445.927M503.505 473.423C519.315 471.609 551.749 464.307 555.002 460.498C558.187 456.768 552.969 456.212 550.418 457.042C550.311 457.077 550.208 457.102 550.096 457.113C529.684 459.16 483.508 463.342 455.396 458.457C420.161 452.335 379.505 433.288 374.762 444.172C374.503 444.767 374.28 445.352 374.092 445.927M503.505 473.423C486.245 475.848 460.543 475.45 437.778 473.845M503.505 473.423C485.53 475.949 458.402 475.412 434.969 473.639M374.028 446.127C378.546 453.61 401.866 469.341 437.778 473.845M374.028 446.127C374.049 446.061 374.07 445.994 374.092 445.927M437.778 473.845C436.836 473.778 435.9 473.71 434.969 473.639M434.873 473.632C434.905 473.635 434.937 473.637 434.969 473.639M434.873 473.632L434.969 473.639"
    stroke="black"
    stroke-width="1.5"
    stroke-linecap="round"
  />
  <path
    d="M258.803 558.055C258.803 558.055 258.802 558.056 258.801 558.058C258.802 558.056 258.803 558.055 258.803 558.055ZM258.233 557.962C258.419 558.047 258.553 558.123 258.647 558.187C258.553 558.25 258.419 558.327 258.233 558.412C257.666 558.671 256.784 558.941 255.586 559.206C253.203 559.734 249.724 560.216 245.392 560.622C236.735 561.433 224.76 561.937 211.521 561.937C198.281 561.937 186.306 561.433 177.649 560.622C173.317 560.216 169.838 559.734 167.455 559.206C166.257 558.941 165.375 558.671 164.808 558.412C164.622 558.327 164.488 558.25 164.394 558.187C164.488 558.123 164.622 558.047 164.808 557.962C165.375 557.702 166.257 557.433 167.455 557.167C169.838 556.639 173.317 556.158 177.649 555.751C186.306 554.94 198.281 554.437 211.521 554.437C224.76 554.437 236.735 554.94 245.392 555.751C249.724 556.158 253.203 556.639 255.586 557.167C256.784 557.433 257.666 557.702 258.233 557.962ZM164.238 558.055C164.239 558.055 164.239 558.056 164.24 558.058C164.239 558.056 164.238 558.055 164.238 558.055ZM164.238 558.318C164.238 558.318 164.239 558.318 164.24 558.316C164.239 558.318 164.239 558.318 164.238 558.318ZM258.801 558.316C258.802 558.318 258.803 558.318 258.803 558.318C258.803 558.318 258.802 558.318 258.801 558.316Z"
    fill="white"
    stroke="black"
    stroke-width="1.5"
  />
  <path
    d="M257.322 546.836C258.769 550.374 257.453 569.341 239.424 556.915C230.95 551.074 210.906 554.956 213.029 568.45L180.937 545.211C179.144 540.394 176.458 530.262 180.053 528.273C183.648 526.284 189.519 534.774 192.006 539.268C197.187 547.098 205.096 554.93 210.682 558.823C208.085 551.705 206.047 542.525 198.058 531.765C188.078 519.733 190.482 501.189 202.552 508.424C214.621 515.659 201.447 521.54 205.326 528.39C207.985 533.088 214.953 538.309 214.953 538.309C219.233 534.948 216.621 518.492 215.65 516.41C214.679 514.329 210.293 494.474 223.826 496.738C234.653 498.55 220.337 515.393 221.902 526.879C225.351 516.302 235.374 502.268 241.265 503.614C245.979 504.69 245.995 518.059 238.553 519.111C229.715 520.894 222.702 533.329 220.3 539.324C223.759 530.692 244.076 517.447 249.012 523.979C254.204 536.673 248.845 541.341 240.619 540.545C237.372 540.231 234.434 535.534 227.034 539.708C220.33 543.489 217.481 548.047 216.616 552.739C229.239 548.735 254.85 540.795 257.322 546.836Z"
    fill="black"
  />
  <path
    d="M158.098 517.991C154.328 520.994 144.103 542.678 171.593 540.098C184.514 538.886 204.185 555.493 193.544 569.038L243.165 563.213C248.103 559.014 257.295 549.517 254.563 545.115C251.83 540.713 240.143 546.444 234.641 549.859C224.119 555.288 210.595 559.04 202.052 559.887C209.29 553.652 217.182 544.803 232.598 537.877C250.986 530.777 259.752 508.889 242.016 509.423C224.281 509.958 235.16 524.538 226.676 529.69C220.858 533.223 209.976 534.682 209.976 534.682C207.334 528.348 220.336 511.845 222.686 510.152C225.036 508.458 242.082 489.306 225.794 483.469C212.764 478.8 218.154 506.147 209.362 517.825C212.076 504.063 209.682 482.448 202.37 480.303C196.52 478.587 188.274 493.291 195.818 499.028C204.446 506.43 204.512 524.432 203.467 532.508C204.972 520.879 190.764 493.798 181.311 497.949C167.785 508.724 170.809 517.161 180.352 521.347C184.119 522.999 190.243 519.638 195.819 528.786C200.871 537.073 201.2 543.843 199.264 549.54C187.836 537.363 164.536 512.864 158.098 517.991Z"
    fill="white"
    stroke="black"
    stroke-width="1.5"
    stroke-linejoin="round"
  />
  <path
    d="M163.521 558.187L168.729 558.838C197.146 562.39 225.895 562.39 254.312 558.838L259.521 558.187V597.187C259.521 620.383 240.716 639.187 217.521 639.187H205.521C182.325 639.187 163.521 620.383 163.521 597.187V558.187Z"
    fill="black"
  />
  <path
    d="M79.7344 514.398L108.234 497.148L145.734 506.898"
    stroke="black"
    stroke-width="7.5"
    stroke-linecap="round"
  />
  <path
    d="M142.76 425.035C142.76 425.035 142.76 425.036 142.759 425.037C142.759 425.036 142.76 425.035 142.76 425.035ZM142.241 424.915C142.425 425.005 142.553 425.084 142.638 425.148C142.553 425.212 142.425 425.291 142.241 425.381C141.716 425.637 140.896 425.905 139.775 426.17C137.546 426.697 134.29 427.178 130.23 427.584C122.118 428.395 110.894 428.898 98.4844 428.898C86.0747 428.898 74.8508 428.395 66.7392 427.584C62.6789 427.178 59.4223 426.697 57.1933 426.17C56.0727 425.905 55.2524 425.637 54.7279 425.381C54.5439 425.291 54.416 425.212 54.3308 425.148C54.416 425.084 54.5439 425.005 54.7279 424.915C55.2524 424.659 56.0727 424.391 57.1933 424.126C59.4223 423.599 62.6789 423.118 66.7392 422.712C74.8508 421.901 86.0747 421.398 98.4844 421.398C110.894 421.398 122.118 421.901 130.23 422.712C134.29 423.118 137.546 423.599 139.775 424.126C140.896 424.391 141.716 424.659 142.241 424.915ZM54.2088 425.035C54.2089 425.035 54.2093 425.036 54.21 425.037C54.2092 425.036 54.2088 425.035 54.2088 425.035ZM54.2088 425.261C54.2088 425.261 54.2092 425.26 54.21 425.259C54.2093 425.26 54.2089 425.261 54.2088 425.261ZM142.759 425.259C142.76 425.26 142.76 425.261 142.76 425.261C142.76 425.261 142.759 425.26 142.759 425.259Z"
    fill="white"
    stroke="black"
    stroke-width="1.5"
  />
  <path
    d="M45.2344 362.148C59.6344 376.548 54.9844 410.898 73.7344 428.148L87.2344 428.898C84.2344 403.098 57.7344 373.648 45.2344 362.148Z"
    fill="white"
    stroke="black"
    stroke-width="1.5"
    stroke-linejoin="round"
  />
  <path
    d="M151.425 362.148C137.025 376.548 141.675 410.898 122.925 428.148L109.425 428.898C112.425 403.098 138.925 373.648 151.425 362.148Z"
    fill="white"
    stroke="black"
    stroke-width="1.5"
    stroke-linejoin="round"
  />
  <path
    d="M96.4687 341.859C110.068 332.412 112.445 321.266 112.195 317.148C133.163 337.307 116.688 352.263 109.948 360.067C104.557 366.31 106.204 407.538 109.948 429.648H92.7244C86.7335 404.503 66.5137 362.668 96.4687 341.859Z"
    fill="black"
  />
  <path
    d="M74.8537 357.484C63.3225 351.323 59.24 342.753 58.6401 339.239C47.1148 359.701 63.7122 367.876 66.9846 375.648C72.9846 389.898 80.2061 414.484 81.6658 433.749L94.2801 430.907C93.889 408.711 86.3849 363.646 74.8537 357.484Z"
    fill="white"
    stroke="black"
    stroke-width="1.5"
    stroke-linejoin="round"
  />
  <path
    d="M138.672 338.871C138.516 338.594 138.203 338.445 137.89 338.5C137.577 338.554 137.333 338.799 137.279 339.112C136.723 342.374 132.802 350.758 121.452 356.823C119.866 357.67 118.406 359.152 117.062 361.067C115.713 362.988 114.449 365.391 113.271 368.139C110.914 373.635 108.871 380.588 107.183 388.016C103.806 402.873 101.825 419.739 101.629 430.893C101.622 431.249 101.867 431.56 102.214 431.638L114.828 434.481C115.041 434.529 115.264 434.482 115.439 434.352C115.614 434.223 115.724 434.023 115.741 433.806C117.193 414.642 124.388 390.136 130.365 375.939C131.13 374.123 132.692 372.249 134.553 370.041L134.621 369.96C136.433 367.809 138.471 365.392 140.05 362.568C141.657 359.696 142.801 356.387 142.787 352.464C142.773 348.545 141.602 344.073 138.672 338.871Z"
    fill="black"
    stroke="white"
    stroke-width="1.5"
    stroke-linejoin="round"
  />
  <path
    d="M54.2344 494.013V425.978L69.2969 427.51C88.2072 429.433 107.262 429.464 126.179 427.604L142.734 425.975V493.949C142.734 501.015 137.555 507.015 130.564 508.046L124.343 508.964C106.704 511.566 88.7752 511.523 71.149 508.834L66.3355 508.1C59.3758 507.038 54.2344 501.053 54.2344 494.013Z"
    fill="white"
    stroke="black"
    stroke-width="1.5"
  />
  <path
    d="M50.4844 455.898V596.148M78.2344 472.398V517.398V623.148M115.734 494.148V586.398M147.234 466.398L146.388 507.648V611.898"
    stroke="black"
    stroke-width="7.5"
    stroke-linecap="round"
  />
  <path
    fill-rule="evenodd"
    clip-rule="evenodd"
    d="M274.196 238.726C258.02 238.726 244.907 251.782 244.907 267.887C244.907 272.92 244.41 278.457 244.41 283.209C244.41 286.758 248.382 293.094 300.507 293.094C357.617 293.094 357.043 287.64 356.662 284.018C356.651 283.912 356.64 283.806 356.631 283.703L357.101 267.887C357.101 251.782 343.987 238.726 327.811 238.726H274.196ZM356.108 282.355V267.887C356.108 252.328 343.439 239.714 327.811 239.714H301.004H274.196C258.568 239.714 245.899 252.328 245.899 267.887L245.403 281.726C251.259 278.886 274.177 276.784 300.507 276.784C328.708 276.784 352.424 279.21 356.108 282.355ZM246.044 282.778C246.693 282.418 247.714 282.039 249.116 281.662C251.905 280.913 255.981 280.227 261.057 279.648C271.195 278.49 285.179 277.772 300.507 277.772C315.835 277.772 329.82 278.49 339.958 279.648C345.033 280.227 349.109 280.913 351.898 281.662C353.301 282.039 354.321 282.418 354.97 282.778C355.295 282.958 355.479 283.107 355.57 283.21C355.591 283.232 355.604 283.249 355.612 283.261C355.615 283.521 355.639 283.779 355.663 284.006L355.675 284.126C355.697 284.332 355.716 284.517 355.727 284.708C355.752 285.149 355.723 285.521 355.577 285.876C355.297 286.555 354.417 287.554 351.336 288.541C345.178 290.514 331.309 292.106 300.507 292.106C274.457 292.106 260.545 290.519 253.171 288.528C249.481 287.532 247.535 286.46 246.519 285.525C245.783 284.846 245.043 283.333 246.044 282.778Z"
    fill="black"
  />
  <path
    d="M356.108 282.355V267.887C356.108 252.328 343.439 239.714 327.811 239.714H301.004H274.196C258.568 239.714 245.899 252.328 245.899 267.887L245.403 281.726C251.259 278.886 274.177 276.784 300.507 276.784C328.708 276.784 352.424 279.21 356.108 282.355Z"
    fill="black"
  />
  <path
    d="M249.116 281.662C247.714 282.039 246.693 282.418 246.044 282.778C245.043 283.333 245.783 284.846 246.519 285.525C247.535 286.46 249.481 287.532 253.171 288.528C260.545 290.519 274.457 292.106 300.507 292.106C331.309 292.106 345.178 290.514 351.336 288.541C354.417 287.554 355.297 286.555 355.577 285.876C355.723 285.521 355.752 285.149 355.727 284.708C355.716 284.517 355.697 284.332 355.675 284.126L355.663 284.006C355.639 283.779 355.615 283.521 355.612 283.261C355.604 283.249 355.591 283.232 355.57 283.21C355.479 283.107 355.295 282.958 354.97 282.778C354.321 282.418 353.301 282.039 351.898 281.662C349.109 280.913 345.033 280.227 339.958 279.648C329.82 278.49 315.835 277.772 300.507 277.772C285.179 277.772 271.195 278.49 261.057 279.648C255.981 280.227 251.905 280.913 249.116 281.662Z"
    fill="white"
  />
  <g filter="url(#filter0_f_6_349)">
    <path
      d="M265.319 281.497L268.919 281.472L274.44 281.434L293.765 281.298L303.427 281.161L322.676 281.084L332.645 281.387L391.521 448.69L206.559 451.327L265.319 281.497Z"
      fill="url(#paint0_linear_6_349)"
    />
  </g>
  <path
    d="M312.309 277.394C312.099 283.337 307.245 288.145 301.197 288.249C295.149 288.353 290.131 283.716 289.715 277.783L312.309 277.394Z"
    stroke="black"
    stroke-width="1.2"
  />
  <path
    d="M292.318 199.291H308.697C312.342 199.291 315.297 202.246 315.297 205.891V238.804C310.05 240.713 297.44 243.166 285.718 238.806V205.891C285.718 202.246 288.673 199.291 292.318 199.291Z"
    fill="black"
    stroke="black"
    stroke-width="1.2"
  />
  <path
    d="M283.791 73.8901C284.601 78.8184 288.861 82.4351 293.856 82.4351H306.531C311.582 82.4351 315.872 78.7385 316.619 73.7431L320.164 50.0256H279.867L283.791 73.8901Z"
    fill="white"
    stroke="black"
    stroke-width="1.2"
  />
  <path
    d="M300.011 81.0581V198.691"
    stroke="black"
    stroke-width="2.4"
    stroke-linecap="round"
  />
  <path
    d="M286.111 218.461V238.726L310.933 239.22C300.063 237.555 291.18 227.545 286.111 218.461Z"
    fill="white"
  />
  <defs>
    <filter
      id="filter0_f_6_349"
      x="178.559"
      y="253.084"
      width="240.962"
      height="226.243"
      filterUnits="userSpaceOnUse"
      color-interpolation-filters="sRGB"
    >
      <feFlood flood-opacity="0" result="BackgroundImageFix" />
      <feBlend
        mode="normal"
        in="SourceGraphic"
        in2="BackgroundImageFix"
        result="shape"
      />
      <feGaussianBlur stdDeviation="14" result="effect1_foregroundBlur_6_349" />
    </filter>
    <linearGradient
      id="paint0_linear_6_349"
      x1="297.065"
      y1="281.044"
      x2="298.93"
      y2="411.852"
      gradientUnits="userSpaceOnUse"
    >
      <stop stop-color="#F8E78E" />
      <stop offset="1" stop-color="#D9D9D9" stop-opacity="0" />
    </linearGradient>
  </defs>
</svg>
