<svg
  width="256"
  height="256"
  viewBox="0 0 256 256"
  fill="none"
  xmlns="http://www.w3.org/2000/svg"
>
  <rect width="256" height="256" rx="4" fill="black" />
  <path
    d="M61.5 217.5V38.5H138.956C150.167 38.5 159.934 40.4605 168.257 44.3814C176.58 48.3024 183.034 53.8429 187.621 61.0029C192.207 68.1629 194.5 76.6014 194.5 86.3186V89.3871C194.5 100.127 191.952 108.821 186.856 115.47C181.761 122.119 175.476 126.977 168.002 130.046V134.649C174.796 134.99 180.062 137.376 183.799 141.809C187.536 146.07 189.404 151.781 189.404 158.941V217.5H155.772V163.8C155.772 159.709 154.668 156.384 152.46 153.827C150.421 151.27 146.939 149.991 142.013 149.991H95.1322V217.5H61.5ZM95.1322 119.306H135.389C143.372 119.306 149.572 117.175 153.989 112.913C158.575 108.48 160.868 102.684 160.868 95.5243V92.9671C160.868 85.8071 158.66 80.0962 154.243 75.8343C149.827 71.4019 143.542 69.1857 135.389 69.1857H95.1322V119.306Z"
    fill="white"
  />
</svg>
