<svg width="500" height="500" viewBox="0 0 500 500" fill="none" xmlns="http://www.w3.org/2000/svg">
<rect width="500" height="500" fill="white"/>
<path d="M192.952 352V208H233.56L237.304 238.528H238.456C245.368 226.624 253.72 217.984 263.512 212.608C273.304 207.232 283.672 204.544 294.616 204.544C301.336 204.544 306.52 205.12 310.168 206.272C314.008 207.232 317.944 208.576 321.976 210.304L312.184 251.776C307.768 250.432 303.736 249.472 300.088 248.896C296.632 248.128 292.312 247.744 287.128 247.744C278.872 247.744 270.712 250.24 262.648 255.232C254.584 260.032 247.864 268.48 242.488 280.576V352H192.952Z" fill="black"/>
</svg>
